<svg width="252" height="48" viewBox="0 0 252 48" fill="none" xmlns="http://www.w3.org/2000/svg">
<path d="M5.22 16.488C3.924 20.592 3.276 23.076 3.276 23.94C3.276 24.228 3.36 24.468 3.528 24.66C3.72 24.828 3.96 24.912 4.248 24.912C7.008 24.912 10.056 24.468 13.392 23.58C14.472 23.292 15.096 23.148 15.264 23.148C15.624 23.148 15.804 23.4 15.804 23.904C15.804 24.768 14.472 25.656 11.808 26.568C9.168 27.48 6.612 27.936 4.14 27.936C3.036 27.936 2.064 27.612 1.224 26.964C0.408 26.316 0 25.5 0 24.516C0 23.532 0.348 21.852 1.044 19.476C1.764 17.1 2.484 14.568 3.204 11.88C3.924 9.192 4.284 6.924 4.284 5.076C4.284 4.812 4.332 4.536 4.428 4.248C4.836 3.36 7.452 2.916 12.276 2.916C17.1 2.916 19.512 3.264 19.512 3.96C19.512 4.44 18.996 4.764 17.964 4.932C17.1 5.1 15.948 5.256 14.508 5.4C13.092 5.52 12.096 5.616 11.52 5.688C10.944 5.736 9.552 5.952 7.344 6.336V6.444C7.344 8.076 6.9 10.536 6.012 13.824C6.156 13.848 6.636 13.86 7.452 13.86C8.292 13.86 9.408 13.8 10.8 13.68C12.192 13.56 13.236 13.5 13.932 13.5C14.652 13.5 15.012 13.668 15.012 14.004C15.012 14.844 14.028 15.468 12.06 15.876C10.092 16.284 7.812 16.488 5.22 16.488Z" fill="black"/>
<path d="M35.3146 0C35.6986 0 36.1666 0.36 36.7186 1.08C37.2946 1.776 37.5826 2.436 37.5826 3.06C37.5826 3.684 37.2826 5.46 36.6826 8.388C36.0826 11.292 35.3866 14.304 34.5946 17.424C32.8666 24.432 31.7266 27.936 31.1746 27.936C30.8386 27.936 30.4666 27.732 30.0586 27.324C29.6746 26.892 29.4826 26.52 29.4826 26.208C29.4826 25.896 29.5666 25.272 29.7346 24.336C27.3826 26.736 25.3306 27.936 23.5786 27.936C22.5226 27.936 21.5626 27.456 20.6986 26.496C19.8586 25.536 19.4386 24.54 19.4386 23.508C19.4386 22.02 19.8346 20.256 20.6266 18.216C21.4426 16.152 22.6066 14.28 24.1186 12.6C25.6306 10.92 27.2386 10.08 28.9426 10.08C30.6466 10.08 31.8346 11.1 32.5066 13.14C33.7306 8.052 34.4026 4.032 34.5226 1.08C34.5226 0.36 34.7866 0 35.3146 0ZM31.3546 17.676C31.3546 16.38 31.1266 15.288 30.6706 14.4C30.2386 13.512 29.7106 13.068 29.0866 13.068C28.0546 13.068 26.9986 13.704 25.9186 14.976C24.8386 16.248 23.9746 17.712 23.3266 19.368C22.7026 21 22.3906 22.416 22.3906 23.616C22.3906 24.048 22.5466 24.396 22.8586 24.66C23.1706 24.924 23.5426 25.056 23.9746 25.056C24.9106 25.056 26.1706 24.384 27.7546 23.04C29.3626 21.696 30.5266 20.112 31.2466 18.288L31.3546 17.856V17.676Z" fill="black"/>
<path d="M50.6154 11.088C50.7114 10.704 50.8074 10.44 50.9034 10.296C50.9994 10.152 51.2034 10.08 51.5154 10.08C51.8514 10.08 52.2474 10.392 52.7034 11.016C53.1834 11.64 53.4234 12.24 53.4234 12.816C53.4234 13.128 52.8954 14.976 51.8394 18.36C50.7834 21.744 49.9674 24.432 49.3914 26.424C49.1034 27.432 48.6954 27.936 48.1674 27.936C47.8554 27.936 47.5914 27.804 47.3754 27.54C47.1594 27.276 47.0514 26.796 47.0514 26.1C47.0514 25.404 47.3274 24.144 47.8794 22.32C46.8714 23.952 45.7794 25.296 44.6034 26.352C43.4274 27.408 42.3474 27.936 41.3634 27.936C40.4034 27.936 39.4914 27.48 38.6274 26.568C37.7634 25.656 37.3314 24.72 37.3314 23.76C37.3314 21.48 37.9914 18.636 39.3114 15.228C40.6554 11.796 41.7714 10.08 42.6594 10.08C43.0914 10.08 43.4634 10.284 43.7754 10.692C44.1114 11.076 44.2794 11.52 44.2794 12.024C44.2794 12.24 43.9554 13.02 43.3074 14.364C42.6594 15.684 42.0114 17.244 41.3634 19.044C40.7154 20.82 40.3914 22.38 40.3914 23.724C40.3914 24.108 40.5114 24.432 40.7514 24.696C40.9914 24.936 41.2794 25.056 41.6154 25.056C42.5274 25.056 43.6074 24.252 44.8554 22.644C46.1274 21.036 47.2794 19.164 48.3114 17.028C49.3434 14.892 50.1114 12.912 50.6154 11.088Z" fill="black"/>
<path d="M64.7795 10.08C65.8595 10.08 66.8555 10.632 67.7675 11.736C68.6795 12.816 69.1355 13.8 69.1355 14.688C69.1355 15.552 68.8355 16.44 68.2355 17.352C68.5235 17.712 68.6675 18.024 68.6675 18.288C68.6675 18.96 68.5115 20.112 68.1995 21.744C67.9115 23.376 67.7315 24.444 67.6595 24.948C67.6115 25.452 67.5635 25.86 67.5155 26.172C67.4675 26.46 67.4075 26.748 67.3355 27.036C67.2395 27.636 67.0235 27.936 66.6875 27.936C66.2555 27.936 65.8955 27.564 65.6075 26.82C65.3435 26.052 65.1875 25.068 65.1395 23.868C63.0035 26.58 61.0235 27.936 59.1995 27.936C58.0955 27.936 57.0035 27.468 55.9235 26.532C54.8675 25.572 54.3395 24.588 54.3395 23.58C54.3395 22.14 54.8675 20.364 55.9235 18.252C56.9795 16.116 58.3475 14.22 60.0275 12.564C61.7075 10.908 63.2915 10.08 64.7795 10.08ZM66.4355 16.416C66.4355 14.184 65.9915 13.068 65.1035 13.068C64.1675 13.068 63.0755 13.74 61.8275 15.084C60.5795 16.404 59.5235 17.904 58.6595 19.584C57.7955 21.264 57.3635 22.596 57.3635 23.58C57.3635 23.988 57.5315 24.324 57.8675 24.588C58.2035 24.828 58.5995 24.948 59.0555 24.948C60.1835 24.948 61.4555 24.192 62.8715 22.68C64.2875 21.144 65.2715 19.284 65.8235 17.1C65.8955 16.74 66.0995 16.524 66.4355 16.452V16.416Z" fill="black"/>
<path d="M74.2385 14.472L74.1305 11.772C74.1305 10.644 74.3945 10.08 74.9225 10.08C75.3785 10.08 75.8105 10.38 76.2185 10.98C76.6505 11.556 76.8665 12.252 76.8665 13.068C76.8665 13.86 76.8425 14.46 76.7945 14.868C78.8825 11.7 80.8625 10.116 82.7345 10.116C83.9105 10.116 84.4985 10.404 84.4985 10.98C84.4985 11.268 84.3665 11.532 84.1025 11.772C83.8385 12.012 83.4185 12.288 82.8425 12.6C81.5705 13.152 80.4905 14.004 79.6025 15.156C78.7385 16.284 78.0305 17.568 77.4785 19.008C76.9265 20.448 76.4825 21.66 76.1465 22.644C75.8345 23.628 75.5945 24.396 75.4265 24.948C75.2585 25.5 75.0665 26.04 74.8505 26.568C74.4665 27.528 74.0225 28.008 73.5185 28.008C73.1105 28.008 72.7745 27.78 72.5105 27.324C72.2705 26.844 72.1505 26.388 72.1505 25.956C72.1505 25.5 72.3545 24.612 72.7625 23.292C73.7465 20.268 74.2385 17.328 74.2385 14.472Z" fill="black"/>
<path d="M99.4044 0C99.7884 0 100.256 0.36 100.808 1.08C101.384 1.776 101.672 2.436 101.672 3.06C101.672 3.684 101.372 5.46 100.772 8.388C100.172 11.292 99.4764 14.304 98.6844 17.424C96.9564 24.432 95.8164 27.936 95.2644 27.936C94.9284 27.936 94.5564 27.732 94.1484 27.324C93.7644 26.892 93.5724 26.52 93.5724 26.208C93.5724 25.896 93.6564 25.272 93.8244 24.336C91.4724 26.736 89.4204 27.936 87.6684 27.936C86.6124 27.936 85.6524 27.456 84.7884 26.496C83.9484 25.536 83.5284 24.54 83.5284 23.508C83.5284 22.02 83.9244 20.256 84.7164 18.216C85.5324 16.152 86.6964 14.28 88.2084 12.6C89.7204 10.92 91.3284 10.08 93.0324 10.08C94.7364 10.08 95.9244 11.1 96.5964 13.14C97.8204 8.052 98.4924 4.032 98.6124 1.08C98.6124 0.36 98.8764 0 99.4044 0ZM95.4444 17.676C95.4444 16.38 95.2164 15.288 94.7604 14.4C94.3284 13.512 93.8004 13.068 93.1764 13.068C92.1444 13.068 91.0884 13.704 90.0084 14.976C88.9284 16.248 88.0644 17.712 87.4164 19.368C86.7924 21 86.4804 22.416 86.4804 23.616C86.4804 24.048 86.6364 24.396 86.9484 24.66C87.2604 24.924 87.6324 25.056 88.0644 25.056C89.0004 25.056 90.2604 24.384 91.8444 23.04C93.4524 21.696 94.6164 20.112 95.3364 18.288L95.4444 17.856V17.676Z" fill="black"/>
<path d="M112.833 16.2C112.833 15.384 112.701 14.616 112.437 13.896C112.173 13.152 111.789 12.612 111.285 12.276C109.629 12.732 108.201 14.016 107.001 16.128C105.825 18.216 105.237 20.184 105.237 22.032C105.237 23.88 105.693 25.032 106.605 25.488C108.333 25.152 109.797 23.976 110.997 21.96C112.221 19.92 112.833 18 112.833 16.2ZM103.365 16.524C104.205 14.652 105.297 13.116 106.641 11.916C108.009 10.692 109.401 10.08 110.817 10.08C112.257 10.08 113.457 10.692 114.417 11.916C115.377 13.116 115.857 14.592 115.857 16.344C115.857 18.072 115.437 19.848 114.597 21.672C113.757 23.472 112.593 24.972 111.105 26.172C109.641 27.348 108.081 27.936 106.425 27.936C105.201 27.936 104.181 27.372 103.365 26.244C102.549 25.116 102.141 23.688 102.141 21.96C102.141 20.208 102.549 18.396 103.365 16.524Z" fill="black"/>
<path d="M151.839 3.996C151.887 2.964 152.127 2.448 152.559 2.448C153.015 2.448 153.507 2.724 154.035 3.276C154.563 3.828 154.827 4.32 154.827 4.752C154.827 6.72 154.515 9.516 153.891 13.14C153.291 16.764 152.475 20.124 151.443 23.22C150.435 26.316 149.475 27.864 148.563 27.864C148.251 27.864 147.891 27.708 147.483 27.396C147.099 27.084 146.799 26.7 146.583 26.244C145.863 24.564 143.739 19.236 140.211 10.26C139.491 13.044 138.687 16.2 137.799 19.728C136.935 23.232 136.359 25.464 136.071 26.424C135.783 27.384 135.531 27.864 135.315 27.864C135.003 27.864 134.619 27.6 134.163 27.072C133.731 26.52 133.515 25.956 133.515 25.38C133.515 24.804 134.295 21.432 135.855 15.264C137.415 9.072 138.219 5.208 138.267 3.672C138.267 2.904 138.471 2.52 138.879 2.52C139.143 2.52 139.503 2.748 139.959 3.204C140.439 3.636 140.787 4.116 141.003 4.644C144.867 14.676 147.315 20.82 148.347 23.076C149.907 18.948 150.951 14.016 151.479 8.28C151.719 5.64 151.839 4.212 151.839 3.996Z" fill="black"/>
<path d="M167.958 16.2C167.958 15.384 167.826 14.616 167.562 13.896C167.298 13.152 166.914 12.612 166.41 12.276C164.754 12.732 163.326 14.016 162.126 16.128C160.95 18.216 160.362 20.184 160.362 22.032C160.362 23.88 160.818 25.032 161.73 25.488C163.458 25.152 164.922 23.976 166.122 21.96C167.346 19.92 167.958 18 167.958 16.2ZM158.49 16.524C159.33 14.652 160.422 13.116 161.766 11.916C163.134 10.692 164.526 10.08 165.942 10.08C167.382 10.08 168.582 10.692 169.542 11.916C170.502 13.116 170.982 14.592 170.982 16.344C170.982 18.072 170.562 19.848 169.722 21.672C168.882 23.472 167.718 24.972 166.23 26.172C164.766 27.348 163.206 27.936 161.55 27.936C160.326 27.936 159.306 27.372 158.49 26.244C157.674 25.116 157.266 23.688 157.266 21.96C157.266 20.208 157.674 18.396 158.49 16.524ZM167.238 8.244C166.998 8.244 166.782 8.148 166.59 7.956C166.422 7.74 166.338 7.476 166.338 7.164C166.338 6.828 166.482 6.468 166.77 6.084C167.082 5.7 167.526 5.232 168.102 4.68C168.678 4.104 169.146 3.648 169.506 3.312C169.866 2.952 170.13 2.676 170.298 2.484C170.49 2.292 170.706 2.1 170.946 1.908C171.378 1.572 171.75 1.404 172.062 1.404C172.374 1.404 172.686 1.632 172.998 2.088C173.31 2.52 173.466 2.916 173.466 3.276C173.466 3.612 173.43 3.864 173.358 4.032C173.31 4.2 173.166 4.38 172.926 4.572C172.71 4.764 172.506 4.92 172.314 5.04C171.498 5.592 170.862 6.024 170.406 6.336C169.95 6.624 169.566 6.888 169.254 7.128C168.942 7.368 168.714 7.536 168.57 7.632C167.946 8.04 167.502 8.244 167.238 8.244Z" fill="black"/>
<path d="M174.912 27.936C174.576 27.936 174.18 27.684 173.724 27.18C173.268 26.652 173.04 26.16 173.04 25.704C173.04 25.248 173.412 23.688 174.156 21.024C174.924 18.36 175.68 15.156 176.424 11.412C177.192 7.644 177.576 4.2 177.576 1.08C177.576 0.36 177.84 0 178.368 0C178.752 0 179.22 0.36 179.772 1.08C180.324 1.776 180.6 2.46 180.6 3.132C180.6 6.084 179.952 10.296 178.656 15.768C181.512 11.904 184.104 9.972 186.432 9.972C187.56 9.972 188.508 10.524 189.276 11.628C190.068 12.732 190.464 14.052 190.464 15.588C190.464 17.1 190.02 18.84 189.132 20.808C188.268 22.776 187.092 24.468 185.604 25.884C184.116 27.276 182.556 27.972 180.924 27.972C179.292 27.972 177.684 27.144 176.1 25.488L176.064 25.524C175.536 27.132 175.152 27.936 174.912 27.936ZM180.636 25.164C182.196 25.164 183.72 24.108 185.208 21.996C186.72 19.86 187.476 17.616 187.476 15.264C187.476 13.848 187.044 13.14 186.18 13.14C184.788 13.14 183.228 14.112 181.5 16.056C179.796 18 178.32 20.316 177.072 23.004C178.2 24.444 179.388 25.164 180.636 25.164Z" fill="black"/>
<path d="M194.438 14.472L194.33 11.772C194.33 10.644 194.594 10.08 195.122 10.08C195.578 10.08 196.01 10.38 196.418 10.98C196.85 11.556 197.066 12.252 197.066 13.068C197.066 13.86 197.042 14.46 196.994 14.868C199.082 11.7 201.062 10.116 202.934 10.116C204.11 10.116 204.698 10.404 204.698 10.98C204.698 11.268 204.566 11.532 204.302 11.772C204.038 12.012 203.618 12.288 203.042 12.6C201.77 13.152 200.69 14.004 199.802 15.156C198.938 16.284 198.23 17.568 197.678 19.008C197.126 20.448 196.682 21.66 196.346 22.644C196.034 23.628 195.794 24.396 195.626 24.948C195.458 25.5 195.266 26.04 195.05 26.568C194.666 27.528 194.222 28.008 193.718 28.008C193.31 28.008 192.974 27.78 192.71 27.324C192.47 26.844 192.35 26.388 192.35 25.956C192.35 25.5 192.554 24.612 192.962 23.292C193.946 20.268 194.438 17.328 194.438 14.472Z" fill="black"/>
<path d="M218.56 16.056C218.56 17.328 217.864 18.372 216.472 19.188C215.104 19.98 213.544 20.376 211.792 20.376C210.064 20.376 208.492 20.184 207.076 19.8C206.74 20.856 206.572 21.804 206.572 22.644C206.572 23.46 206.824 24.096 207.328 24.552C207.856 25.008 208.708 25.236 209.884 25.236C211.084 25.236 212.308 25.032 213.556 24.624C214.828 24.192 215.524 23.976 215.644 23.976C216.268 23.976 216.58 24.216 216.58 24.696C216.58 25.344 215.848 26.052 214.384 26.82C212.92 27.564 211.492 27.936 210.1 27.936C208.228 27.936 206.704 27.384 205.528 26.28C204.352 25.152 203.764 23.736 203.764 22.032C203.764 20.328 204.22 18.552 205.132 16.704C206.044 14.832 207.22 13.26 208.66 11.988C210.1 10.716 211.528 10.08 212.944 10.08C214.36 10.08 215.644 10.752 216.796 12.096C217.972 13.44 218.56 14.76 218.56 16.056ZM213.124 12.924C212.236 12.924 211.312 13.392 210.352 14.328C209.392 15.24 208.576 16.38 207.904 17.748C208.864 17.964 209.956 18.072 211.18 18.072C212.404 18.072 213.472 17.88 214.384 17.496C215.296 17.088 215.752 16.56 215.752 15.912C215.752 15.264 215.452 14.604 214.852 13.932C214.276 13.26 213.7 12.924 213.124 12.924Z" fill="black"/>
<path d="M234.659 18.216C234.659 19.176 234.239 20.268 233.399 21.492C232.751 22.956 232.055 25.068 231.311 27.828C230.567 30.564 229.943 32.52 229.439 33.696C228.431 36.144 226.883 37.368 224.795 37.368C223.091 37.368 221.651 36.9 220.475 35.964C219.323 35.052 218.747 34.14 218.747 33.228C218.747 32.844 218.867 32.46 219.107 32.076C219.323 31.692 219.551 31.5 219.791 31.5C220.055 31.5 220.343 31.68 220.655 32.04C220.967 32.4 221.255 32.784 221.519 33.192C221.807 33.624 222.227 34.02 222.779 34.38C223.355 34.74 223.907 34.92 224.435 34.92C224.963 34.92 225.359 34.836 225.623 34.668C225.887 34.524 226.139 34.272 226.379 33.912C226.619 33.576 226.823 33.228 226.991 32.868C227.159 32.532 227.339 32.04 227.531 31.392C227.747 30.768 227.915 30.228 228.035 29.772C228.155 29.316 228.323 28.68 228.539 27.864C228.755 27.024 228.935 26.352 229.079 25.848C227.207 27.24 225.683 27.936 224.507 27.936C223.331 27.936 222.311 27.468 221.447 26.532C220.583 25.572 220.151 24.468 220.151 23.22C220.151 21.948 220.619 20.268 221.555 18.18C222.515 16.092 223.799 14.22 225.407 12.564C227.015 10.908 228.587 10.08 230.123 10.08C231.107 10.08 231.935 10.452 232.607 11.196C233.711 12.42 234.263 14.16 234.263 16.416C234.263 16.704 234.251 16.908 234.227 17.028C234.515 17.436 234.659 17.832 234.659 18.216ZM223.067 23.58C223.067 23.988 223.199 24.324 223.463 24.588C223.727 24.828 224.063 24.948 224.471 24.948C225.671 24.948 227.087 24.24 228.719 22.824C230.351 21.384 231.503 19.716 232.175 17.82C232.079 17.508 231.995 17.028 231.923 16.38C231.851 15.732 231.779 15.216 231.707 14.832C231.635 14.448 231.479 14.064 231.239 13.68C230.999 13.272 230.687 13.068 230.303 13.068C229.367 13.068 228.311 13.74 227.135 15.084C225.959 16.428 224.987 17.928 224.219 19.584C223.451 21.24 223.067 22.572 223.067 23.58Z" fill="black"/>
<path d="M247.065 10.08C248.145 10.08 249.141 10.632 250.053 11.736C250.965 12.816 251.421 13.8 251.421 14.688C251.421 15.552 251.121 16.44 250.521 17.352C250.809 17.712 250.953 18.024 250.953 18.288C250.953 18.96 250.797 20.112 250.485 21.744C250.197 23.376 250.017 24.444 249.945 24.948C249.897 25.452 249.849 25.86 249.801 26.172C249.753 26.46 249.693 26.748 249.621 27.036C249.525 27.636 249.309 27.936 248.973 27.936C248.541 27.936 248.181 27.564 247.893 26.82C247.629 26.052 247.473 25.068 247.425 23.868C245.289 26.58 243.309 27.936 241.485 27.936C240.381 27.936 239.289 27.468 238.209 26.532C237.153 25.572 236.625 24.588 236.625 23.58C236.625 22.14 237.153 20.364 238.209 18.252C239.265 16.116 240.633 14.22 242.313 12.564C243.993 10.908 245.577 10.08 247.065 10.08ZM248.721 16.416C248.721 14.184 248.277 13.068 247.389 13.068C246.453 13.068 245.361 13.74 244.113 15.084C242.865 16.404 241.809 17.904 240.945 19.584C240.081 21.264 239.649 22.596 239.649 23.58C239.649 23.988 239.817 24.324 240.153 24.588C240.489 24.828 240.885 24.948 241.341 24.948C242.469 24.948 243.741 24.192 245.157 22.68C246.573 21.144 247.557 19.284 248.109 17.1C248.181 16.74 248.385 16.524 248.721 16.452V16.416Z" fill="black"/>
<path d="M240.732 46.476C183.232 35.8093 68.232 35.8093 10.732 46.476" stroke="#7B5FFF" stroke-width="3" stroke-linecap="round"/>
</svg>
