<svg
                                width="18"
                                height="18"
                                viewBox="0 0 18 18"
                                fill="none"
                                xmlns="http://www.w3.org/2000/svg"
                            >
                                <path
                                    d="M6.50012 6.50025C5.83705 6.50025 5.20113 6.23684 4.73227 5.76798C4.26341 5.29912 4 4.6632 4 4.00012C4 3.33705 4.26341 2.70113 4.73227 2.23227C5.20113 1.76341 5.83705 1.5 6.50012 1.5H8.99988V6.50025M6.50012 6.50025H8.99988M6.50012 6.50025C5.83715 6.50025 5.20133 6.76362 4.73253 7.23241C4.26374 7.7012 4.00038 8.33703 4.00038 9C4.00038 9.66297 4.26374 10.2988 4.73253 10.7676C5.20133 11.2364 5.83715 11.4998 6.50012 11.4998H8.99988V6.50025"
                                    stroke="#757575"
                                    stroke-width="1.125"
                                />
                                <path
                                    d="M14.0002 9C14.0002 9.66308 13.7368 10.299 13.268 10.7679C12.7991 11.2367 12.1632 11.5001 11.5001 11.5001C10.837 11.5001 10.2011 11.2367 9.73226 10.7679C9.26339 10.299 8.99999 9.66308 8.99999 9C8.99999 8.33693 9.26339 7.70101 9.73226 7.23215C10.2011 6.76328 10.837 6.49988 11.5001 6.49988C12.1632 6.49988 12.7991 6.76328 13.268 7.23215C13.7368 7.70101 14.0002 8.33693 14.0002 9ZM6.50024 11.5005H8.99999V14.0003C8.99984 14.4946 8.85311 14.9779 8.57834 15.3888C8.30357 15.7998 7.91312 16.1201 7.45633 16.3092C6.99955 16.4983 6.49696 16.5477 6.0121 16.4511C5.52725 16.3546 5.08191 16.1165 4.73238 15.7668C4.38286 15.4172 4.14486 14.9718 4.04847 14.4869C3.95207 14.002 4.00162 13.4994 4.19084 13.0427C4.38007 12.586 4.70046 12.1956 5.11153 11.921C5.5226 11.6463 6.00587 11.5005 6.50024 11.5005Z"
                                    stroke="#757575"
                                    stroke-width="1.125"
                                />
                                <path
                                    d="M9 1.5H11.4998C12.1628 1.5 12.7987 1.76341 13.2676 2.23227C13.7365 2.70113 13.9999 3.33705 13.9999 4.00012C13.9999 4.6632 13.7365 5.29912 13.2676 5.76798C12.7987 6.23684 12.1628 6.50025 11.4998 6.50025H9V1.5Z"
                                    stroke="#757575"
                                    stroke-width="1.125"
                                />
                            </svg>