<svg
    width="18"
    height="18"
    viewBox="0 0 18 18"
    fill="none"
    xmlns="http://www.w3.org/2000/svg"
>
    <path
        d="M6.75 6.75V6C6.75 5.40326 6.98705 4.83097 7.40901 4.40901C7.83097 3.98705 8.40326 3.75 9 3.75C9.59674 3.75 10.169 3.98705 10.591 4.40901C11.0129 4.83097 11.25 5.40326 11.25 6V6.75M9 15C9.99456 15 10.9484 14.6049 11.6517 13.9017C12.3549 13.1984 12.75 12.2446 12.75 11.25V9C12.7057 8.19643 12.4467 7.41944 12 6.75H6C5.5533 7.41944 5.2943 8.19643 5.25 9V11.25C5.25 12.2446 5.64509 13.1984 6.34835 13.9017C7.05161 14.6049 8.00544 15 9 15ZM9 15V10.5M2.25 9.75H5.25M12.75 9.75H15.75M3 14.25L5.5125 12.75M15 14.25L12.4875 12.75M3 5.25L5.8125 7.05M15 5.25L12.1875 7.05"
        stroke="#757575"
        stroke-width="1.33333"
        stroke-linecap="round"
        stroke-linejoin="round"
    />
</svg>