<svg width="20" height="20" viewBox="0 0 20 20" fill="none" xmlns="http://www.w3.org/2000/svg">
<path d="M9.99999 2.29171V12.5875M9.99999 16.2217V17.7084M9.99999 16.2217C9.51818 16.2217 9.0561 16.0303 8.71541 15.6896C8.37472 15.3489 8.18332 14.8869 8.18332 14.405C8.18332 13.9232 8.37472 13.4612 8.71541 13.1205C9.0561 12.7798 9.51818 12.5884 9.99999 12.5884C10.4818 12.5884 10.9439 12.7798 11.2846 13.1205C11.6253 13.4612 11.8167 13.9232 11.8167 14.405C11.8167 14.8869 11.6253 15.3489 11.2846 15.6896C10.9439 16.0303 10.4818 16.2217 9.99999 16.2217ZM15.5058 2.29171L15.5058 7.08171M15.5058 7.08171C15.9877 7.08171 16.4503 7.27357 16.7911 7.61433C17.1319 7.9551 17.3233 8.41729 17.3233 8.89921C17.3233 9.38102 17.1311 9.84309 16.7904 10.1838C16.4497 10.5245 15.9876 10.7159 15.5058 10.7159M15.5058 7.08171C15.0239 7.08171 14.5621 7.27357 14.2214 7.61433C13.8806 7.9551 13.6892 8.41729 13.6892 8.89921C13.6892 9.38102 13.8806 9.84309 14.2212 10.1838C14.5619 10.5245 15.024 10.7159 15.5058 10.7159M15.5058 10.7159V17.7084M4.49416 2.29171V4.87921M4.49416 8.51337L4.49416 17.7084M4.49416 8.51337C4.01235 8.51337 3.55027 8.32198 3.20958 7.98128C2.86889 7.64059 2.67749 7.17852 2.67749 6.69671C2.67749 6.45814 2.72448 6.22191 2.81578 6.0015C2.90707 5.78109 3.04089 5.58082 3.20958 5.41213C3.37827 5.24344 3.57854 5.10962 3.79895 5.01833C4.01936 4.92703 4.25559 4.88004 4.49416 4.88004C4.73272 4.88004 4.96896 4.92703 5.18937 5.01833C5.40977 5.10962 5.61004 5.24344 5.77873 5.41213C5.94743 5.58082 6.08124 5.78109 6.17254 6.0015C6.26383 6.22191 6.31082 6.45814 6.31082 6.69671C6.31082 7.17852 6.11943 7.64059 5.77873 7.98128C5.43804 8.32198 4.97597 8.51337 4.49416 8.51337Z" stroke="#FAFAFA" stroke-miterlimit="10" stroke-linecap="round"/>
</svg>
